# xmcd
#
# Track frame offsets:
#	150
#	14310
#	28995
#	42268
#	53770
#	68518
#	79378
#	95253
#	108765
#	123118
#	137940
#	149595
#	161715
#	175095
#	186878
#
# Disc length: 2641 seconds
#
# Revision: 0
# Processed by: cddbd v1.5.1PL2 Copyright (c) Steve Scherf et al.
# Submitted via: audiograbber 1.83.01
#
DISCID=ca0a4f0f
DTITLE=токгс босйопоукос and доуйисса  - амалмгсеис 
DYEAR=1967
DGENRE=каийа
TTITLE0=алалмгсеис
TTITLE1=еваса том амхяыпо лоу
TTITLE2=ои оуяамои
TTITLE3=хекы та ыпа лоу
TTITLE4=л' елахес м' ацапы
TTITLE5=ма сталатгсоуле тыяа де циметаи
TTITLE6=сам тгс цаядемиас том амхо
TTITLE7=о пеияаиытгс
TTITLE8=йкеистес ои поятес
TTITLE9=евы лиам аяяабымиаяа
TTITLE10=лекацвокиа
TTITLE11=поу пас выяис ацапг
TTITLE12=тоу выяислоу г ыяа
TTITLE13=опоиос тг мувта дем тг феи
TTITLE14=ти соу 'вы йамеи бяе фыг
EXTD=
EXTT0=
EXTT1=
EXTT2=
EXTT3=
EXTT4=
EXTT5=
EXTT6=
EXTT7=
EXTT8=
EXTT9=
EXTT10=
EXTT11=
EXTT12=
EXTT13=
EXTT14=
PLAYORDER=
